<?xml version="1.0" encoding="utf-8"?>
<!-- Generator: Adobe Illustrator 27.6.1, SVG Export Plug-In . SVG Version: 6.00 Build 0)  -->
<svg version="1.1" id="Ebene_1" xmlns="http://www.w3.org/2000/svg" xmlns:xlink="http://www.w3.org/1999/xlink" x="0px" y="0px"
	 viewBox="0 0 621.48 231.13" style="enable-background:new 0 0 621.48 231.13;" xml:space="preserve">
<style type="text/css">
	.st0{fill:#FFFFFF;}
	.st1{fill-rule:evenodd;clip-rule:evenodd;fill:#33AAD3;}
	.st2{fill-rule:evenodd;clip-rule:evenodd;fill:#008CC5;}
	
		.st3{clip-path:url(#SVGID_00000083783070729602850600000010406156761150916793_);fill:url(#SVGID_00000055693830527083888120000016708799329680944566_);}
	
		.st4{clip-path:url(#SVGID_00000166675441862071418400000016389875965953061548_);fill:url(#SVGID_00000051379863521441057350000010685118960740919194_);}
	.st5{fill-rule:evenodd;clip-rule:evenodd;fill:#006FA7;}
	.st6{fill-rule:evenodd;clip-rule:evenodd;fill:#FFFFFF;}
	
		.st7{clip-path:url(#SVGID_00000160190026629521236880000016996302851821174171_);fill:url(#SVGID_00000136404330530910134320000015369451832120653702_);}
	
		.st8{clip-path:url(#SVGID_00000052796373383290189550000017192169510613144980_);fill:url(#SVGID_00000008852107104446230870000004539800943764104578_);}
</style>
<g>
	<path class="st0" d="M218.55,124.43c-10,0-17.45-3.19-22.32-9.57c-2.94-3.81-4.41-8.13-4.41-12.94c0-6.51,2.45-11.92,7.36-16.23
		c4.91-4.32,11.36-6.47,19.37-6.47h50.65l-4.78,15.85h-45.68c-3.81,0-6.35,1.41-7.6,4.22c-0.38,0.88-0.56,1.75-0.56,2.63
		c0,2.69,1.31,4.66,3.94,5.91c1.25,0.57,2.66,0.85,4.22,0.85h25.7c9.57,0,16.82,3.06,21.76,9.19c3.13,3.94,4.69,8.41,4.69,13.41
		c0,6.5-2.44,11.88-7.32,16.13c-4.88,4.25-11.25,6.38-19.13,6.38h-52.62l4.78-15.85h47.65c3.87,0,6.41-1.38,7.6-4.13
		c0.38-0.82,0.56-1.66,0.56-2.53c0-2.69-1.25-4.66-3.75-5.91c-1.31-0.63-2.78-0.94-4.41-0.94H218.55z"/>
	<path class="st0" d="M308.34,143.84l6.47-15.19h20.83L321.1,97.69l-25.98,56.09h-18.67l35.36-71.66l17.82-4.78l36.68,76.45h-18.76
		l-4.69-9.94H308.34z"/>
	<path class="st0" d="M396.76,124.52v29.26h-17.73V79.21h71.19l-4.88,15.85h-48.59v13.61h45.31v15.85H396.76z"/>
	<path class="st0" d="M463.4,79.21h17.73v74.57H463.4V79.21z"/>
	<path class="st0" d="M501.14,106.04l17.73-4.78v13.13h31.8c3.5,0,5.94-1.75,7.32-5.26c0.56-1.44,0.85-2.94,0.85-4.5
		c0-3.81-1.28-6.6-3.85-8.34c-1.31-0.82-2.75-1.22-4.32-1.22h-49.53l4.78-15.85h44.93c9.19,0,16.32,3.35,21.39,10.04
		c3.56,4.75,5.35,10.16,5.35,16.23c0,7.25-2.44,13.22-7.32,17.91c-2.56,2.44-5.57,4.22-9,5.35l18.48,25.04h-20.92l-16.23-23.54
		h-23.73v23.54h-17.73V106.04z"/>
</g>
<g>
	<g>
		<polygon class="st1" points="81.19,190.29 164.73,158.09 123.85,140.15 		"/>
		<polygon class="st2" points="111.75,178.51 164.73,158.09 124.22,140.15 		"/>
		<g>
			<defs>
				<polygon id="SVGID_1_" points="124.12,140.51 164.73,158.09 125.72,139.61 123.87,67.11 123.85,140.15 81.19,190.29 				"/>
			</defs>
			<clipPath id="SVGID_00000109010170195159075170000003095930269247739776_">
				<use xlink:href="#SVGID_1_"  style="overflow:visible;"/>
			</clipPath>
			
				<linearGradient id="SVGID_00000066513886620025504190000005854916759320639118_" gradientUnits="userSpaceOnUse" x1="15.3094" y1="535.7273" x2="15.6131" y2="535.7273" gradientTransform="matrix(1.511425e-08 336.6459 -206.2273 9.258902e-09 110604.5391 -5087.707)">
				<stop  offset="0" style="stop-color:#33AAD3"/>
				<stop  offset="1" style="stop-color:#FFFFFF"/>
			</linearGradient>
			
				<rect x="81.19" y="67.11" style="clip-path:url(#SVGID_00000109010170195159075170000003095930269247739776_);fill:url(#SVGID_00000066513886620025504190000005854916759320639118_);" width="83.54" height="123.18"/>
		</g>
		<g>
			<defs>
				<polygon id="SVGID_00000028306468058650696790000011932127092080316056_" points="125.73,139.6 164.73,158.09 123.87,67.11 				
					"/>
			</defs>
			<clipPath id="SVGID_00000089572266486671073250000009711583293272785537_">
				<use xlink:href="#SVGID_00000028306468058650696790000011932127092080316056_"  style="overflow:visible;"/>
			</clipPath>
			
				<linearGradient id="SVGID_00000135656040777111478240000016273798736529650082_" gradientUnits="userSpaceOnUse" x1="16.1795" y1="536.7475" x2="16.327" y2="536.7475" gradientTransform="matrix(142.3525 0 0 239.6126 -2179.8499 -128498.8594)">
				<stop  offset="0" style="stop-color:#006FA7"/>
				<stop  offset="1" style="stop-color:#33AAD3"/>
			</linearGradient>
			
				<rect x="123.87" y="67.11" style="clip-path:url(#SVGID_00000089572266486671073250000009711583293272785537_);fill:url(#SVGID_00000135656040777111478240000016273798736529650082_);" width="40.86" height="90.98"/>
		</g>
		<polygon class="st1" points="124.92,108.06 123.88,67.12 153.34,132.72 		"/>
		<polygon class="st5" points="123.85,140.15 123.87,67.11 81.19,190.29 		"/>
		<polygon class="st6" points="164.73,158.09 164.7,158.04 125.78,137.41 123.92,67.19 123.87,67.1 123.84,67.2 121.66,137.98 
			81.21,190.23 81.19,190.29 81.28,190.25 123.89,141.09 164.68,158.11 		"/>
	</g>
	<g>
		<polygon class="st1" points="125.27,40.84 41.73,73.03 82.61,90.98 		"/>
		<polygon class="st2" points="94.71,52.62 41.73,73.03 82.24,90.98 		"/>
		<g>
			<defs>
				<polygon id="SVGID_00000034810451781843722110000008874904363049208223_" points="82.33,90.62 41.73,73.03 80.73,91.52 
					82.59,164.01 82.61,90.98 125.27,40.84 				"/>
			</defs>
			<clipPath id="SVGID_00000051343788482314555570000017839044098066518450_">
				<use xlink:href="#SVGID_00000034810451781843722110000008874904363049208223_"  style="overflow:visible;"/>
			</clipPath>
			
				<linearGradient id="SVGID_00000088123944408547609660000014044208720629623939_" gradientUnits="userSpaceOnUse" x1="15.3856" y1="536.059" x2="15.6894" y2="536.059" gradientTransform="matrix(-1.511425e-08 -336.6459 206.2273 -9.258902e-09 -110466.4766 5344.5059)">
				<stop  offset="0" style="stop-color:#33AAD3"/>
				<stop  offset="1" style="stop-color:#FFFFFF"/>
			</linearGradient>
			
				<rect x="41.73" y="40.84" style="clip-path:url(#SVGID_00000051343788482314555570000017839044098066518450_);fill:url(#SVGID_00000088123944408547609660000014044208720629623939_);" width="83.54" height="123.18"/>
		</g>
		<g>
			<defs>
				<polygon id="SVGID_00000071549143664966521780000015101957873508261558_" points="80.73,91.53 41.73,73.03 82.59,164.01 				"/>
			</defs>
			<clipPath id="SVGID_00000181801735492126677250000012052020223944691371_">
				<use xlink:href="#SVGID_00000071549143664966521780000015101957873508261558_"  style="overflow:visible;"/>
			</clipPath>
			
				<linearGradient id="SVGID_00000031198303774450358050000015310276659481216906_" gradientUnits="userSpaceOnUse" x1="15.699" y1="536.8546" x2="15.8466" y2="536.8546" gradientTransform="matrix(-142.3525 0 0 -239.6126 2317.9092 128755.6562)">
				<stop  offset="0" style="stop-color:#006FA7"/>
				<stop  offset="1" style="stop-color:#33AAD3"/>
			</linearGradient>
			
				<rect x="41.73" y="73.03" style="clip-path:url(#SVGID_00000181801735492126677250000012052020223944691371_);fill:url(#SVGID_00000031198303774450358050000015310276659481216906_);" width="40.86" height="90.98"/>
		</g>
		<polygon class="st1" points="81.54,123.06 82.58,164.01 53.12,98.4 		"/>
		<polygon class="st5" points="82.6,90.98 82.59,164.01 125.27,40.84 		"/>
		<polygon class="st6" points="41.73,73.03 41.75,73.09 80.68,93.71 82.54,163.93 82.59,164.02 82.62,163.93 84.8,93.15 
			125.24,40.9 125.27,40.84 125.17,40.87 82.57,90.04 41.78,73.01 		"/>
	</g>
</g>
</svg>
